HIERARCHY
ROOT Hips
{
	OFFSET 0.000000 0.000000 0.000000
	CHANNELS 6 Xposition Yposition Zposition Xrotation Yrotation Zrotation
	JOINT LeftUpLeg_virtual
	{
		OFFSET 0.000000 0.000000 0.000000
		CHANNELS 3 Xrotation Yrotation Zrotation
		JOINT LeftUpLeg
		{
			OFFSET 15.427100 -6.655098 0.678600
			CHANNELS 3 Xrotation Yrotation Zrotation
			JOINT LeftLeg
			{
				OFFSET 4.081073 -39.591068 13.024000
				CHANNELS 3 Xrotation Yrotation Zrotation
				JOINT LeftFoot
				{
					OFFSET -4.081074 -37.707932 -15.979700
					CHANNELS 3 Xrotation Yrotation Zrotation
					JOINT LeftToeBase
					{
						OFFSET 5.346399 -15.068900 20.645000
						CHANNELS 3 Xrotation Yrotation Zrotation
						JOINT LeftToe_End
						{
							OFFSET 2.754700 0.931300 11.300900
							CHANNELS 3 Xrotation Yrotation Zrotation
							End Site
							{
								OFFSET 0 0 0
							}
						}
					}
				}
			}
		}
	}
	JOINT RightUpLeg_virtual
	{
		OFFSET 0.000000 0.000000 0.000000
		CHANNELS 3 Xrotation Yrotation Zrotation
		JOINT RightUpLeg
		{
			OFFSET -15.569500 -6.655098 0.678600
			CHANNELS 3 Xrotation Yrotation Zrotation
			JOINT RightLeg
			{
				OFFSET -4.081825 -39.591045 13.023800
				CHANNELS 3 Xrotation Yrotation Zrotation
				JOINT RightFoot
				{
					OFFSET 4.081824 -37.707954 -15.979600
					CHANNELS 3 Xrotation Yrotation Zrotation
					JOINT RightToeBase
					{
						OFFSET -5.346400 -15.068900 20.645000
						CHANNELS 3 Xrotation Yrotation Zrotation
						JOINT RightToe_End
						{
							OFFSET -2.754700 0.931300 11.300900
							CHANNELS 3 Xrotation Yrotation Zrotation
							End Site
							{
								OFFSET 0 0 0
							}
						}
					}
				}
			}
		}
	}
	JOINT Spine_virtual
	{
		OFFSET 0.000000 0.000000 0.000000
		CHANNELS 3 Xrotation Yrotation Zrotation
		JOINT Spine
		{
			OFFSET -0.279200 12.230698 -2.892100
			CHANNELS 3 Xrotation Yrotation Zrotation
			JOINT Spine1
			{
				OFFSET -0.232667 10.192268 -1.242267
				CHANNELS 3 Xrotation Yrotation Zrotation
				JOINT Spine1_split
				{
					OFFSET -0.232667 10.192268 -1.242267
					CHANNELS 3 Xrotation Yrotation Zrotation
					JOINT Spine2
					{
						OFFSET -0.232667 10.192268 -1.242267
						CHANNELS 3 Xrotation Yrotation Zrotation
						JOINT Neck_virtual
						{
							OFFSET 0.000000 0.000000 0.000000
							CHANNELS 3 Xrotation Yrotation Zrotation
							JOINT Neck
							{
								OFFSET -0.418800 17.814194 8.416900
								CHANNELS 3 Xrotation Yrotation Zrotation
								JOINT Head
								{
									OFFSET 0.000000 7.031097 3.806800
									CHANNELS 3 Xrotation Yrotation Zrotation
									JOINT HeadTop_End
									{
										OFFSET 0.000000 24.646606 12.978600
										CHANNELS 3 Xrotation Yrotation Zrotation
										End Site
										{
											OFFSET 0 0 0
										}
									}
								}
							}
						}
						JOINT LeftShoulder_virtual
						{
							OFFSET 0.000000 0.000000 0.000000
							CHANNELS 3 Xrotation Yrotation Zrotation
							JOINT LeftShoulder
							{
								OFFSET 8.476499 7.247704 -3.868750
								CHANNELS 3 Xrotation Yrotation Zrotation
								JOINT LeftShoulder_split
								{
									OFFSET 8.476499 7.247704 -3.868750
									CHANNELS 3 Xrotation Yrotation Zrotation
									JOINT LeftArm
									{
										OFFSET 9.308998 -2.777710 0.208600
										CHANNELS 3 Xrotation Yrotation Zrotation
										JOINT LeftForeArm
										{
											OFFSET 29.972298 0.000000 0.000000
											CHANNELS 3 Xrotation Yrotation Zrotation
											JOINT LeftHand
											{
												OFFSET 26.026505 0.000000 0.000000
												CHANNELS 3 Xrotation Yrotation Zrotation
												End Site
												{
													OFFSET 0 0 0
												}
											}
										}
									}
								}
							}
						}
						JOINT RightShoulder_virtual
						{
							OFFSET 0.000000 0.000000 0.000000
							CHANNELS 3 Xrotation Yrotation Zrotation
							JOINT RightShoulder
							{
								OFFSET -7.570500 7.247704 -3.868750
								CHANNELS 3 Xrotation Yrotation Zrotation
								JOINT RightShoulder_split
								{
									OFFSET -7.570500 7.247704 -3.868750
									CHANNELS 3 Xrotation Yrotation Zrotation
									JOINT RightArm
									{
										OFFSET -9.308998 -2.777710 0.208500
										CHANNELS 3 Xrotation Yrotation Zrotation
										JOINT RightForeArm
										{
											OFFSET -29.972300 0.000000 0.000000
											CHANNELS 3 Xrotation Yrotation Zrotation
											JOINT RightHand
											{
												OFFSET -26.026505 0.000000 0.000000
												CHANNELS 3 Xrotation Yrotation Zrotation
												End Site
												{
													OFFSET 0 0 0
												}
											}
										}
									}
								}
							}
						}
					}
				}
			}
		}
	}
}
MOTION
Frames: 7
Frame Time: 0.03333333
5.903152 43.986515 -2.045525 0.000000 0.000000 0.000000 1.152200 -37.399418 6.979370 -69.084754 -17.644472 53.647601 67.817638 9.780215 -5.857152 36.976219 0.712030 -6.664913 -3.774743 -0.000674 -2.625309 0.000000 0.000000 0.000000 -3.747317 -32.042425 6.785373 -21.379404 5.259723 -25.231549 105.087132 5.351362 -0.427632 37.551195 5.517229 10.184129 53.538141 -0.457707 -5.719833 0.000000 0.000000 0.000000 -1.553564 -38.212552 7.047130 3.487968 -5.920381 -4.654457 2.178299 -4.139306 -2.315696 0.602280 0.569375 -0.007976 0.000000 0.000000 0.000000 1.433875 -4.450415 -2.121818 0.408187 1.052557 2.529118 1.915333 14.595698 5.698473 0.000000 0.000000 0.000000 1.383619 -4.150694 -2.332335 1.533963 0.335923 -2.034449 -4.532114 1.432149 -0.754491 -0.919294 -15.105245 -49.140021 175.403848 -86.708835 176.214318 0.000000 0.000000 0.000000 2.829923 -4.243236 -2.370570 5.718711 18.058737 3.202861 -1.605463 5.112087 -0.732961 -31.684151 -14.171551 46.273289 179.192854 82.474179 -179.616845 0.000000 0.000000 0.000000 
5.829995 43.954155 -2.038055 0.000000 0.000000 0.000000 1.252600 -37.403506 7.060682 -68.933671 -17.549324 53.868165 67.762655 9.827369 -6.106790 36.958618 0.752519 -6.532557 -3.935482 0.010197 -2.666760 0.000000 0.000000 0.000000 -3.656442 -32.080770 6.864295 -21.585841 5.256811 -25.201730 105.119746 5.342759 -0.414163 37.614309 5.461020 10.068439 53.963836 -0.442137 -5.555212 0.000000 0.000000 0.000000 -1.436167 -38.159669 7.098677 3.437415 -5.825878 -4.888418 2.218643 -4.070056 -2.495914 0.610047 0.555776 0.004255 0.000000 0.000000 0.000000 1.448344 -4.399552 -2.271729 0.276747 0.905836 3.003387 1.798421 14.674298 6.015278 0.000000 0.000000 0.000000 1.385253 -4.071362 -2.497792 1.502472 0.542260 -1.297663 -4.675650 1.289428 -0.920280 -0.857647 -15.174776 -49.464445 177.413399 -86.725289 178.292321 0.000000 0.000000 0.000000 2.821440 -4.180804 -2.565508 5.681432 18.197338 3.729120 -1.696782 5.168294 -0.668775 -30.586786 -13.030461 43.858602 179.541317 78.419738 -179.922332 0.000000 0.000000 0.000000 
5.742133 43.926910 -2.022308 0.000000 0.000000 0.000000 1.339485 -37.393872 7.114634 -68.810495 -17.458095 54.112747 67.723832 9.877927 -6.345846 36.939760 0.703887 -6.430923 -4.049509 0.025601 -2.702544 0.000000 0.000000 0.000000 -3.569458 -32.079609 6.910204 -21.674328 5.220911 -25.127875 105.059108 5.351521 -0.429515 37.670997 5.455419 10.019366 54.313760 -0.422836 -5.395748 0.000000 0.000000 0.000000 -1.343767 -38.054146 7.122489 3.370618 -5.716017 -5.115072 2.264298 -4.008626 -2.667199 0.606386 0.525780 0.017197 0.000000 0.000000 0.000000 1.477993 -4.345357 -2.414150 0.102926 0.732753 3.503520 1.707424 14.712207 6.294960 0.000000 0.000000 0.000000 1.386062 -3.991467 -2.655338 1.451773 0.811032 -0.718092 -4.700912 1.122933 -1.016495 -0.820799 -15.315046 -49.643335 178.997921 -86.694942 179.945077 0.000000 0.000000 0.000000 2.820886 -4.117121 -2.750901 5.623615 18.313723 4.372446 -1.788937 5.169664 -0.563969 -29.832374 -12.137775 41.746994 179.715937 74.731094 179.959106 0.000000 0.000000 0.000000 
5.637313 43.914043 -2.008530 0.000000 0.000000 0.000000 1.398606 -37.366708 7.118829 -68.708677 -17.368691 54.376229 67.688800 9.953233 -6.571245 36.906101 0.602495 -6.318534 -4.123441 0.040635 -2.731659 0.000000 0.000000 0.000000 -3.503590 -32.038375 6.902133 -21.603040 5.125195 -24.993028 104.900586 5.353339 -0.462903 37.666048 5.480009 10.025391 54.520032 -0.403747 -5.263706 0.000000 0.000000 0.000000 -1.281055 -37.907120 7.110365 3.293915 -5.594802 -5.326867 2.320893 -3.948785 -2.825328 0.601425 0.498794 0.035369 0.000000 0.000000 0.000000 1.527934 -4.287378 -2.545850 -0.098147 0.548690 4.029832 1.685964 14.756279 6.491146 0.000000 0.000000 0.000000 1.406397 -3.911631 -2.796894 1.387043 1.107432 -0.249698 -4.610051 0.930768 -1.003217 -0.788659 -15.518174 -49.714358 -179.693452 -86.615630 -178.678855 0.000000 0.000000 0.000000 2.849944 -4.051572 -2.920986 5.539886 18.444607 5.154353 -1.843441 5.085106 -0.456710 -29.103948 -11.253077 39.848710 179.846722 71.517306 179.896418 0.000000 0.000000 0.000000 
5.520388 43.922356 -2.000313 0.000000 0.000000 0.000000 1.435154 -37.320540 7.074870 -68.625151 -17.282955 54.636643 67.660639 10.055355 -6.775995 36.851746 0.470969 -6.184911 -4.174828 0.054313 -2.773082 0.000000 0.000000 0.000000 -3.459938 -31.954692 6.842135 -21.381733 4.943719 -24.797852 104.647978 5.321797 -0.496718 37.558920 5.515164 10.102471 54.509523 -0.390856 -5.179668 0.000000 0.000000 0.000000 -1.243515 -37.729815 7.070181 3.214106 -5.467234 -5.521489 2.388931 -3.886130 -2.970844 0.577313 0.459329 0.033492 0.000000 0.000000 0.000000 1.595393 -4.229044 -2.672294 -0.317572 0.367574 4.568095 1.760526 14.845524 6.565183 0.000000 0.000000 0.000000 1.455708 -3.835681 -2.920852 1.314643 1.394527 0.156564 -4.430036 0.741498 -0.882187 -0.785631 -15.761597 -49.746754 -178.491216 -86.479300 -177.404752 0.000000 0.000000 0.000000 2.917292 -3.990837 -3.076584 5.441084 18.591309 6.000549 -1.873400 4.907861 -0.347345 -28.129084 -10.167969 38.057264 179.963409 68.776262 179.849358 0.000000 0.000000 0.000000 
5.391431 43.949631 -1.999451 0.000000 0.000000 0.000000 1.454954 -37.230330 6.996407 -68.564062 -17.205793 54.858741 67.631768 10.166227 -6.947166 36.791436 0.306182 -6.052360 -4.280817 0.066405 -2.817344 0.000000 0.000000 0.000000 -3.426517 -31.837417 6.754179 -21.052322 4.687595 -24.567787 104.325812 5.263313 -0.530471 37.346890 5.571901 10.281305 54.306670 -0.386698 -5.149704 0.000000 0.000000 0.000000 -1.217546 -37.526459 7.021827 3.136549 -5.341482 -5.702835 2.459739 -3.821046 -3.107947 0.576359 0.430244 0.036763 0.000000 0.000000 0.000000 1.673267 -4.173187 -2.795586 -0.544804 0.214498 5.090684 1.934717 15.021635 6.497824 0.000000 0.000000 0.000000 1.525158 -3.765850 -3.032248 1.239921 1.654069 0.534959 -4.234430 0.599763 -0.724225 -0.819610 -16.023841 -49.806730 -177.282382 -86.312090 -176.122151 0.000000 0.000000 0.000000 3.010717 -3.939652 -3.223868 5.337147 18.736797 6.840454 -1.894490 4.701619 -0.259504 -26.730309 -8.785854 36.321402 -179.901691 66.408256 179.769090 0.000000 0.000000 0.000000 
5.252171 43.994637 -1.997330 0.000000 0.000000 0.000000 1.466805 -37.075066 6.902897 -68.525478 -17.131747 55.023396 67.589667 10.272657 -7.083702 36.749782 0.111677 -5.927007 -4.465724 0.074139 -2.861895 0.000000 0.000000 0.000000 -3.399173 -31.693116 6.663291 -20.683580 4.386633 -24.317427 103.972801 5.191388 -0.566498 37.078648 5.664467 10.574243 53.978599 -0.385483 -5.160877 0.000000 0.000000 0.000000 -1.193633 -37.295510 6.980064 3.062348 -5.224339 -5.880432 2.519257 -3.754739 -3.241419 0.569441 0.392471 0.027917 0.000000 0.000000 0.000000 1.759712 -4.121019 -2.917298 -0.775565 0.108660 5.562795 2.173224 15.289812 6.292775 0.000000 0.000000 0.000000 1.603992 -3.703125 -3.135025 1.168107 1.881022 0.898839 -4.081577 0.529810 -0.606346 -0.880496 -16.297928 -49.941776 -176.136263 -86.136137 -174.909164 0.000000 0.000000 0.000000 3.097867 -3.903537 -3.365827 5.242176 18.859301 7.581846 -1.885490 4.536866 -0.215200 -24.893483 -7.186004 34.726669 -179.771426 64.239732 179.663003 0.000000 0.000000 0.000000 
